<svg xmlns="http://www.w3.org/2000/svg" width="900" height="226" viewBox="0 0 900 226" role="img" aria-label="seed 2026-09-18">
<style>
.mote{animation:drift linear infinite}
@keyframes drift{to{stroke-dashoffset:-1000}}
.cell{animation:rise .55s cubic-bezier(.2,.8,.3,1) both}
.caret{animation:blink 1.15s steps(1,end) infinite}
@keyframes rise{from{opacity:0;transform:translateY(7px)}}
@keyframes blink{50%{opacity:0}}
@media (prefers-reduced-motion:reduce){
.mote{display:none}
.cell,.caret{animation:none}
}
</style>
<defs><clipPath id="art"><rect width="900" height="150" rx="8"/></clipPath></defs>
<rect width="900" height="226" rx="8" fill="#ffffff" stroke="#d1d9e0"/>
<g clip-path="url(#art)">
<polyline points="773,59 775,52 777,45 779,38 780,32 780,25 779,18 778,11 776,4 774,-3 771,-9 768,-15 764,-21 761,-27 757,-33 753,-39 749,-45" fill="none" stroke="#1568ca" stroke-width="0.88" stroke-opacity="0.26" stroke-linecap="round"/>
<polyline points="586,103 593,101 600,99 606,97 613,94 619,91 625,88 631,84 637,80 642,76 647,71 652,65 656,60 660,54 663,48 666,41 669,35 671,28 672,21 674,14 675,8 676,1 677,-6 677,-13 678,-20 679,-27 680,-34 682,-41 683,-48" fill="none" stroke="#1568c9" stroke-width="1.35" stroke-opacity="0.40" stroke-linecap="round"/>
<polyline points="345,23 352,25 359,27 365,29 372,32 378,35 384,38 390,42 396,45 402,49 408,53 413,57 419,61 425,65 431,69 437,73 443,77 449,80 455,83 461,86 468,89 474,91 481,93 488,95 495,96 502,98 509,99 515,99 522,100 529,100 536,101 543,101 550,100 557,100 564,100 571,99 578,98 585,97 592,95 599,94 606,92 612,89 618,86 625,83 631,79 636,75 642,71 647,66 651,61 655,55 659,49 662,43 665,36 668,30 670,23 671,16 673,10 674,3 675,-4 676,-11 677,-18 678,-25 679,-32 681,-39 682,-46" fill="none" stroke="#1668c9" stroke-width="1.46" stroke-opacity="0.21" stroke-linecap="round"/>
<polyline points="165,-12 172,-12 179,-12 186,-12 193,-12 200,-11 207,-11 214,-10 220,-9 227,-8 234,-7 241,-6 248,-5 255,-4 262,-3 269,-2 276,-1 283,-0 290,0 297,1 304,1 311,1 318,1 325,0 332,-0 339,-1 346,-1 353,-2 360,-2 367,-2 374,-1 381,-1 388,1 394,2 401,5 407,7 414,11 420,14 425,18 431,23 436,27 441,32 446,37 451,42 456,47 461,52 466,56 472,61 477,65 483,69 489,73 495,76 502,79 508,82 515,84 521,86 528,88 535,89 542,90 549,91 556,91 563,91 570,91 577,91 584,90 591,89 598,87 604,85 611,83 617,80" fill="none" stroke="#1668c8" stroke-width="1.28" stroke-opacity="0.31" stroke-linecap="round"/>
<polyline points="852,44 859,43 866,44 873,45 879,48 886,51 891,55 896,61 899,67 902,73 904,80 905,87 905,94 905,101 903,108 902,114 900,121 898,128 895,134 893,141 890,147 888,154 885,160 883,167 881,174 880,181 879,188 878,195" fill="none" stroke="#1668c8" stroke-width="0.74" stroke-opacity="0.41" stroke-linecap="round"/>
<polyline points="701,78 704,71 705,64 707,58 707,51 708,44 707,37 706,30 705,23 704,16 702,9 701,2 699,-5 698,-11 696,-18 695,-25 694,-32 694,-39 694,-46" fill="none" stroke="#1768c7" stroke-width="1.01" stroke-opacity="0.39" stroke-linecap="round"/>
<polyline points="10,61 14,66 18,72 21,78 24,85 27,91 29,98 31,104 33,111 35,118 37,125 38,132 40,138 41,145 43,152 45,159 48,165 51,172 54,178 57,184 61,190 66,195" fill="none" stroke="#1768c7" stroke-width="1.18" stroke-opacity="0.40" stroke-linecap="round"/>
<polyline points="162,42 167,47 172,52 175,58 179,64 182,70 185,77 187,84 189,90 191,97 192,104 193,111 195,118 196,125 197,132 198,138 199,145 200,152 201,159 203,166 205,173 207,179 209,186 212,192 215,199" fill="none" stroke="#1868c6" stroke-width="1.51" stroke-opacity="0.27" stroke-linecap="round"/>
<polyline points="479,143 485,139 491,136 497,133 504,130 510,128 517,126 524,124 530,122 537,120 544,119 551,117 558,116 564,114 571,113 578,111 585,110 592,108 598,106 605,103 612,101 618,98 624,95 630,91 636,87 641,83 647,78 651,73 656,68 660,62 663,56 666,50 669,43 671,36 673,30 675,23 676,16 677,9 678,2 678,-5 679,-12 679,-19 680,-26 681,-33 682,-40 684,-47" fill="none" stroke="#1868c6" stroke-width="1.12" stroke-opacity="0.43" stroke-linecap="round"/>
<polyline points="416,-28 423,-27 430,-25 436,-23 443,-20 449,-16 454,-12 460,-8 465,-3 470,2 475,7 479,12 484,18 488,23 493,29 497,34 502,39 507,44 512,48 518,53 524,57 530,60 536,64 542,66 549,69 556,70 562,72 569,73 576,73 583,73 590,73 597,72 604,70 611,68 617,66 624,63 630,59 635,55 641,50 646,45 650,40 654,34 657,28 661,22 663,16 666,9 668,2 670,-5 671,-11 673,-18 674,-25 676,-32 678,-39 680,-45" fill="none" stroke="#1868c5" stroke-width="0.88" stroke-opacity="0.21" stroke-linecap="round"/>
<polyline points="924,22 930,26 935,31 940,36 943,42 946,49 947,55 948,62 948,69 947,76 945,83 942,90 940,96 936,102 933,108 929,114 925,120 921,126 917,132 913,137 910,143 906,149 903,155 899,162 896,168 894,174 891,181 889,188 888,195" fill="none" stroke="#1968c5" stroke-width="1.07" stroke-opacity="0.41" stroke-linecap="round"/>
<polyline points="161,110 162,117 163,124 164,131 166,138 167,145 168,151 170,158 171,165 173,172 176,178 178,185 181,191 184,198" fill="none" stroke="#1968c4" stroke-width="1.36" stroke-opacity="0.44" stroke-linecap="round"/>
<polyline points="319,89 325,94 330,99 335,103 341,108 346,112 352,115 359,119 365,121 371,124 378,126 385,127 392,128 399,128 406,128 413,128 420,128 427,127 434,126 441,125 448,124 455,123 462,122 468,121 475,120 482,118 489,117 496,117 503,116 510,115 517,114 524,113 531,112 538,111 545,111 552,110 559,109 566,108 573,107 579,105 586,104 593,102 600,100 606,98 613,95 619,92 625,89 631,85 637,81 642,77 647,72 652,67 656,61 660,55 663,49 666,43 669,36 671,29 673,23 674,16 675,9 676,2 677,-5 678,-12 678,-19 679,-26 680,-33 682,-40 683,-47" fill="none" stroke="#1968c4" stroke-width="1.30" stroke-opacity="0.43" stroke-linecap="round"/>
<polyline points="606,8 613,8 620,6 626,3 633,-0 638,-4 644,-9 648,-14 653,-19 657,-25 661,-31 664,-37 668,-43 671,-49" fill="none" stroke="#1a68c3" stroke-width="1.35" stroke-opacity="0.34" stroke-linecap="round"/>
<polyline points="106,51 111,57 115,62 119,68 123,74 126,80 129,86 131,93 134,100 135,106 137,113 139,120 140,127 142,134 143,141 145,147 146,154 148,161 150,168 153,174 156,181 159,187 162,193 165,199" fill="none" stroke="#1a68c3" stroke-width="1.31" stroke-opacity="0.30" stroke-linecap="round"/>
<polyline points="635,9 640,5 645,-0 650,-6 654,-11 657,-17 661,-23 664,-30 667,-36 670,-42 673,-48" fill="none" stroke="#1a68c2" stroke-width="1.12" stroke-opacity="0.32" stroke-linecap="round"/>
<polyline points="508,51 513,55 519,59 525,63 531,66 538,69 544,71 551,73 558,74 565,75 572,76 579,76 586,76 593,75 600,74 606,72 613,70 620,67 626,64 632,60 637,56 642,51 647,46 651,41 655,35 659,29 662,22 664,16 667,9 668,2 670,-4 672,-11 673,-18 675,-25 676,-32 678,-39 680,-45" fill="none" stroke="#1b68c2" stroke-width="0.93" stroke-opacity="0.40" stroke-linecap="round"/>
<polyline points="532,116 539,115 546,114 553,113 560,112 567,110 574,109 581,108 587,106 594,104 601,102 607,100 614,97 620,94 626,91 632,87 638,83 643,78 648,73 653,68 657,63 661,57 664,50 667,44 670,38 672,31 673,24 675,17 676,10 677,3 677,-4 678,-11 679,-18 679,-25 680,-31 682,-38 683,-45" fill="none" stroke="#1c68c1" stroke-width="1.57" stroke-opacity="0.34" stroke-linecap="round"/>
<polyline points="267,55 271,60 276,65 280,71 284,77 288,83 292,89 295,94 299,100 303,106 308,111 312,117 317,122 322,127 327,132 333,136 338,140 345,143 351,145 358,147 365,148 372,149 379,149 386,148 393,147 400,146 406,144 413,142 420,140 426,138 433,136 440,134 446,132 453,130 460,128 467,126 473,124 480,123 487,121 494,120 501,119 508,117 515,116 522,115 529,114 535,113 542,112 549,111 556,110 563,109 570,108 577,107 584,105 591,104 597,102 604,100 611,97 617,94 623,91 629,88 635,84 640,79 646,75 650,69 655,64 659,58 662,52 665,46 668,39 670,33" fill="none" stroke="#1c68c0" stroke-width="1.48" stroke-opacity="0.41" stroke-linecap="round"/>
<polyline points="98,15 104,17 111,19 118,22 124,24 130,28 136,31 142,35 147,40 152,45 157,50 161,56 165,61 168,68 171,74 174,80 176,87 178,94 180,101 181,107 182,114 183,121 184,128 185,135 186,142 188,149 189,156 190,163 192,169 194,176 196,183 199,189 202,196" fill="none" stroke="#1d68bf" stroke-width="1.36" stroke-opacity="0.22" stroke-linecap="round"/>
<polyline points="333,87 338,92 344,96 350,100 356,104 362,107 368,110 374,113 381,115 388,117 394,119 401,120 408,121 415,121 422,121 429,121 436,121 443,120 450,120 457,119 464,118 471,118 478,117 485,116 492,115 499,115 506,114 513,113 520,112 527,112 534,111 541,110 548,109 555,109 562,108 569,107 575,105 582,104 589,102 596,101 603,99 609,96 616,93 622,90 628,87 634,83 639,79 645,74 649,69 654,64 658,58 661,52 665,46 667,39 670,33 672,26 673,19 674,12 675,5 676,-2 677,-9 678,-16 679,-23 680,-30 681,-36 682,-43" fill="none" stroke="#1d68bf" stroke-width="1.45" stroke-opacity="0.40" stroke-linecap="round"/>
<polyline points="694,68 695,61 697,54 698,47 698,40 698,33 697,26 697,19 696,12 695,5 694,-2 693,-8 692,-15 691,-22 690,-29 690,-36 690,-43" fill="none" stroke="#1d67bf" stroke-width="1.41" stroke-opacity="0.43" stroke-linecap="round"/>
<polyline points="694,54 695,47 695,40 696,33 695,26 695,19 694,12 693,5 692,-1 691,-8 690,-15 690,-22 689,-29 689,-36 690,-43" fill="none" stroke="#1e67be" stroke-width="0.84" stroke-opacity="0.33" stroke-linecap="round"/>
<polyline points="686,104 690,99 694,93 698,87 701,81 704,74 706,68 707,61 708,54 709,47 708,40 708,33 707,26 705,19 704,12 702,5 701,-1 699,-8 697,-15 696,-22 695,-29 694,-36 694,-43 694,-50" fill="none" stroke="#1e67bd" stroke-width="1.17" stroke-opacity="0.41" stroke-linecap="round"/>
<polyline points="523,49 529,53 535,56 541,60 547,62 554,65 561,66 568,68 575,69 581,69 588,69 595,68 602,67 609,65 616,63 622,60 628,56 634,52 639,48 644,43 649,38 653,32 657,26 660,20 663,13 665,7 667,0 669,-7 671,-13 672,-20 674,-27 676,-34 678,-41 680,-47" fill="none" stroke="#1f67bd" stroke-width="0.84" stroke-opacity="0.22" stroke-linecap="round"/>
<polyline points="250,143 252,149 254,156 256,163 259,169 262,176 265,182 269,188 273,193 277,199" fill="none" stroke="#1f67bc" stroke-width="1.18" stroke-opacity="0.42" stroke-linecap="round"/>
<polyline points="39,62 44,68 48,74 51,80 55,86 58,92 60,98 63,105 65,112 67,118 69,125 71,132 73,138 75,145 78,152 80,158 83,165 86,171 89,177 93,183 97,189 102,194 106,199" fill="none" stroke="#2067bc" stroke-width="1.55" stroke-opacity="0.26" stroke-linecap="round"/>
<polyline points="210,-8 217,-7 224,-6 231,-5 238,-4 244,-2 251,-1 258,1 265,2 272,4 279,5 285,7 292,8 299,9 306,10 313,11 320,12 327,13 334,13 341,14 348,15 355,16 362,18 368,20 375,22 382,25 388,28 394,31 400,34 406,38 412,42 417,47 423,51 428,55 434,60 439,64 445,68 451,72 457,76 463,79 469,82 475,85 482,88 489,90 495,92 502,93 509,95 516,96 523,97 530,97 537,98 544,98 551,98 558,98 565,98 572,97 579,96 586,95 592,94 599,92 606,90 612,88 619,85 625,81 631,78 637,74 642,69 647,64 651,59 656,53" fill="none" stroke="#2067bb" stroke-width="1.06" stroke-opacity="0.38" stroke-linecap="round"/>
<polyline points="704,156 711,155 718,153 725,153 732,152 739,152 746,152 753,152 760,153 767,154 773,157 780,159 786,163 792,167 797,172 802,177 806,182 810,188 814,194 817,200" fill="none" stroke="#2067bb" stroke-width="1.50" stroke-opacity="0.44" stroke-linecap="round"/>
<polyline points="-21,18 -14,20 -8,23 -1,26 5,29 11,32 17,35 23,39 29,43 35,47 40,51 46,56 50,61 55,66 59,72 63,78 67,84 70,90 73,97 75,103 77,110 80,116 82,123 84,130 86,136 88,143 90,150 92,156 95,163 98,169 101,175 105,181 108,187 113,193 117,198" fill="none" stroke="#2167ba" stroke-width="1.50" stroke-opacity="0.39" stroke-linecap="round"/>
<polyline points="22,77 25,84 28,90 30,97 33,103 35,110 36,117 38,124 40,130 41,137 43,144 45,151 47,157 49,164 52,170 55,177 59,183 63,188 67,194 72,199" fill="none" stroke="#2167ba" stroke-width="1.38" stroke-opacity="0.38" stroke-linecap="round"/>
<polyline points="814,58 820,54 826,51 832,47 839,45 845,43 852,41 859,40 866,40 873,41 880,43 886,46 892,50 897,55 901,60 905,66 907,73 909,80 909,87 909,94 908,101 907,107 905,114 903,121 900,127 898,134 895,140 892,147 890,153 887,160 885,166 883,173 882,180 880,187 880,194" fill="none" stroke="#2167b9" stroke-width="1.38" stroke-opacity="0.17" stroke-linecap="round"/>
<polyline points="452,123 459,122 466,121 473,120 480,119 487,118 494,117 501,116 508,115 515,114 521,113 528,112 535,112 542,111 549,110 556,109 563,108 570,107 577,106 584,104 591,103 597,101 604,99 611,96 617,93 623,90 629,87 635,83 640,78 646,73 650,68 655,63 659,57 662,51 665,45 668,38 670,32 672,25 674,18 675,11 676,4 677,-3 677,-10 678,-17 679,-24 680,-30 681,-37 682,-44" fill="none" stroke="#2267b9" stroke-width="1.36" stroke-opacity="0.15" stroke-linecap="round"/>
<polyline points="555,94 562,94 569,94 576,93 583,92 589,91 596,90 603,88 610,86 616,83 622,80 628,76 634,72 640,68 645,63 649,58 654,52 658,46 661,40 664,34 666,27 669,21 670,14 672,7 673,0 674,-7 675,-14 676,-20 678,-27 679,-34 680,-41 682,-48" fill="none" stroke="#2267b8" stroke-width="1.34" stroke-opacity="0.23" stroke-linecap="round"/>
<polyline points="271,87 275,93 278,99 281,105 284,112 287,118 290,124 294,130 297,136 301,142 306,147 310,153 316,157 321,161 327,165 334,168 340,170 347,171 354,172 361,171 368,170 375,169 382,167 388,164 395,161 401,158 407,155 413,152 420,149 426,146 432,143 439,140 445,137 452,135 458,132 465,130 471,128 478,126 485,124 492,122 499,121 505,119 512,118 519,117 526,116 533,115 540,114 547,113 554,112 561,110 568,109 574,108 581,106 588,105 595,103 602,101 608,99 615,96 621,93 627,89 633,86 639,81 644,77 649,72 653,67 657,61 661,55 664,49 667,42 670,36" fill="none" stroke="#2267b8" stroke-width="1.56" stroke-opacity="0.37" stroke-linecap="round"/>
<polyline points="454,102 461,103 468,104 475,105 482,105 489,106 496,106 503,106 510,106 517,106 524,106 531,106 538,106 545,105 552,105 559,104 566,104 573,103 580,101 587,100 593,98 600,97 607,94 613,92 620,89 626,86 632,82 637,78 643,73 648,68 652,63 656,57 660,51 663,45 666,39 668,32 671,25 672,19 674,12 675,5 676,-2 677,-9 677,-16 678,-23 679,-30 681,-37 682,-44" fill="none" stroke="#2367b7" stroke-width="1.42" stroke-opacity="0.41" stroke-linecap="round"/>
<polyline points="355,90 361,94 367,97 373,100 379,103 386,106 392,108 399,110 406,112 413,113 420,114 427,115 434,115 441,115 448,115 455,115 462,115 469,115 476,114 483,114 490,113 497,113 504,112 511,112 518,111 525,111 532,110 539,109 546,109 552,108 559,107 566,106 573,105 580,104 587,102 594,101 600,99 607,96 614,94 620,91 626,87 632,84 638,79 643,75 648,70 652,65 657,59 660,53 664,47 666,41 669,34 671,27 673,21 674,14 675,7 676,-0 677,-7 678,-14 678,-21 679,-28 680,-35 682,-42 683,-49" fill="none" stroke="#2467b6" stroke-width="1.16" stroke-opacity="0.25" stroke-linecap="round"/>
<polyline points="437,112 444,113 451,113 458,113 465,113 472,113 479,112 486,112 493,112 500,111 507,111 514,111 521,110 528,110 535,109 542,108 549,108 556,107 563,106 570,105 576,104 583,103 590,101 597,99 604,97 610,95 617,92 623,89 629,85 635,81 640,77 645,72 650,67 654,62 658,56 662,50 665,44 668,37 670,30 672,24 673,17 674,10 675,3 676,-4 677,-11 678,-18 679,-25 680,-32 681,-39 683,-45" fill="none" stroke="#2467b5" stroke-width="0.88" stroke-opacity="0.23" stroke-linecap="round"/>
<polyline points="794,142 800,146 806,150 811,155 815,160 819,166 823,172 826,178 829,185 831,191 834,198" fill="none" stroke="#2567b4" stroke-width="0.72" stroke-opacity="0.40" stroke-linecap="round"/>
<polyline points="852,22 858,19 864,16 871,14 878,12 885,11 892,10 899,11 906,12 913,13 919,16 925,19 931,22 937,27 941,32 945,38 948,44 950,51 951,58 951,65 951,72 949,79 947,85 944,92 941,98 937,104 934,110 930,116 926,121 922,127 918,133 914,139 910,145 906,150 903,157 899,163 896,169 894,176 892,182 890,189 889,196" fill="none" stroke="#2567b4" stroke-width="1.54" stroke-opacity="0.34" stroke-linecap="round"/>
<polyline points="648,58 653,52 657,47 660,40 663,34 666,28 668,21 670,14 671,7 673,1 674,-6 675,-13 676,-20 677,-27 679,-34 680,-41 682,-48" fill="none" stroke="#2667b3" stroke-width="1.30" stroke-opacity="0.29" stroke-linecap="round"/>
<polyline points="377,86 383,90 389,93 395,96 402,98 408,101 415,103 422,105 429,106 436,107 443,108 449,109 456,110 463,110 470,110 477,110 484,110 491,110 498,110 505,110 512,109 519,109 526,109 533,108 540,108 547,107 554,106 561,106 568,105 575,104 582,102 589,101 596,99 602,97 609,95 615,92 622,89 628,86 634,82 639,77 644,73 649,68 654,62 658,57 661,50 664,44 667,38 669,31 671,24 673,18 674,11 675,4 676,-3 677,-10 678,-17 679,-24 680,-31 681,-38 682,-45" fill="none" stroke="#2667b3" stroke-width="1.01" stroke-opacity="0.24" stroke-linecap="round"/>
<polyline points="300,5 307,5 314,5 321,5 328,6 335,6 342,6 349,6 356,6 363,7 369,8 376,9 383,11 390,14 396,16 402,20 408,23 414,27 420,31 425,36 431,40 436,45 441,49 446,54 452,58 457,63 463,67 469,71 475,75 481,78 487,81 493,84 500,86 507,88 513,90 520,92 527,93 534,94 541,94 548,95 555,95 562,95 569,94 576,94 583,93 590,92 597,90 603,88 610,86 617,83 623,80 629,77 635,73 640,68 645,64 650,58 654,53 658,47 661,41 664,34 667,28 669,21 671,14 672,8 673,1 674,-6 675,-13 677,-20 678,-27 679,-34" fill="none" stroke="#2667b2" stroke-width="1.16" stroke-opacity="0.25" stroke-linecap="round"/>
<polyline points="605,118 611,115 618,112 624,109 630,106 636,102 641,98 647,93 652,89 657,83 661,78 665,72 669,66 672,60 674,53 677,47 678,40 680,33 681,26 681,19 682,12 682,5 682,-2 682,-9 682,-16 683,-23 683,-30 684,-37 685,-44" fill="none" stroke="#2767b2" stroke-width="1.43" stroke-opacity="0.39" stroke-linecap="round"/>
<polyline points="576,160 582,157 588,154 595,151 601,148 608,145 614,143 620,140 627,137 633,134 639,130 645,127 651,123 657,119 663,115 668,110 673,106 678,100 682,95 686,89 690,83 693,77 695,70 697,64 699,57 700,50 700,43 700,36 700,29 699,22 698,15 697,8 695,1 694,-6 693,-13 692,-19 691,-26 691,-33 691,-40 691,-47" fill="none" stroke="#2767b1" stroke-width="0.75" stroke-opacity="0.19" stroke-linecap="round"/>
<polyline points="633,87 639,83 644,78 649,73 654,68 658,62 661,56 665,50 668,44 670,37 672,30 674,24 675,17 676,10 677,3 678,-4 678,-11 679,-18 680,-25 681,-32 682,-39 683,-46" fill="none" stroke="#2867b1" stroke-width="0.76" stroke-opacity="0.32" stroke-linecap="round"/>
<polyline points="794,31 796,24 797,18 797,11 796,4 796,-3 794,-10 792,-17 790,-24 787,-30 784,-36 780,-42 776,-48" fill="none" stroke="#2867b0" stroke-width="1.41" stroke-opacity="0.41" stroke-linecap="round"/>
<polyline points="98,-6 105,-7 112,-7 119,-8 126,-8 133,-8 140,-8 147,-8 154,-8 161,-8 168,-7 175,-7 182,-6 189,-4 196,-3 203,-2 210,0 216,2 223,4 230,7 236,9 243,12 249,15 255,18 261,21 268,25 274,28 280,32 285,36 291,39 297,43 303,47 309,51 314,55 320,59 326,63 332,67 337,71 343,75 349,79 355,83 361,87 367,90 373,94 379,97 385,100 392,103 398,105 405,107 412,109 419,110 426,111 433,112 440,113 447,113 454,113 461,113 468,113 475,113 482,113 488,112 495,112 502,111 509,111 516,111 523,110 530,110 537,109 544,108 551,108" fill="none" stroke="#2867b0" stroke-width="0.92" stroke-opacity="0.33" stroke-linecap="round"/>
<polyline points="279,38 284,43 290,47 295,51 300,56 306,60 311,65 317,69 322,74 327,78 333,83 338,87 344,91 350,95 356,99 362,103 368,106 374,109 381,111 387,114 394,116 401,117 408,118 415,119 422,119 429,119 436,119 443,119 450,118 457,118 464,117 471,117 478,116 485,115 491,115 498,114 505,113 512,113 519,112 526,111 533,111 540,110 547,109 554,108 561,107 568,106 575,105 582,104 589,102 595,101 602,99 609,96 615,93 621,90 628,87 633,83 639,79 644,74 649,69 654,64 658,58 661,52 664,46 667,39 669,33 671,26 673,19 674,12 675,6 676,-1" fill="none" stroke="#2967af" stroke-width="1.42" stroke-opacity="0.26" stroke-linecap="round"/>
<polyline points="-46,-3 -39,-2 -32,-1 -26,-0 -19,1 -12,1 -5,2 2,2 9,2 16,2 23,2 30,2 37,2 44,1 51,1 58,0 65,-0 72,-1 79,-1 86,-1 93,-2 100,-2 107,-2 114,-2 121,-1 128,-1 135,-0 142,1 149,2 156,3 163,5 169,7 176,9 182,12 189,15 195,18 201,22 207,26 212,30 218,35 222,39 227,45 232,50 236,56 239,62 243,68 246,74 249,80 251,87 254,94 256,100 258,107 261,113 263,120 265,127 267,133 270,140 272,146 275,153 278,159 282,165 285,171 290,177 294,182 300,187 305,191 311,194 318,197 324,199" fill="none" stroke="#2967af" stroke-width="0.98" stroke-opacity="0.21" stroke-linecap="round"/>
<polyline points="565,135 572,132 579,130 585,128 592,125 598,123 605,120 611,118 618,115 624,112 630,108 636,104 642,100 647,96 652,91 657,86 661,81 666,75 669,69 672,63 675,56 677,50 679,43 681,36 682,29 682,22 683,15 683,8 683,1 683,-6 683,-13 683,-20 683,-27 684,-34 685,-41 686,-48" fill="none" stroke="#2967ae" stroke-width="1.43" stroke-opacity="0.30" stroke-linecap="round"/>
<polyline points="301,126 305,131 309,137 314,142 319,147 325,151 331,155 337,158 344,160 350,162 357,163 364,163 371,162 378,161 385,159 392,157 398,155 405,152 411,150 418,147 424,144 431,141 437,139 444,136 450,134 457,131 463,129 470,127 477,125 484,124 490,122 497,121 504,119 511,118 518,117 525,116 532,115 539,114 546,113 552,111 559,110 566,109 573,108 580,107 587,105 594,103 600,101 607,99 613,96 620,93 626,90 632,86 637,82 643,78 648,73 652,67 657,62 660,56 664,50 667,43 669,37 671,30 673,23 674,17 675,10 676,3 677,-4 678,-11 679,-18 679,-25" fill="none" stroke="#2a67ae" stroke-width="0.94" stroke-opacity="0.28" stroke-linecap="round"/>
<polyline points="605,131 612,128 618,125 624,122 631,119 637,115 642,111 648,107 654,102 659,98 663,93 668,87 672,81 675,75 679,69 681,63 683,56 685,49 686,42 687,35 687,28 688,21 688,14 687,7 687,0 686,-7 686,-14 686,-21 686,-28 686,-35 687,-42 688,-49" fill="none" stroke="#2a66ad" stroke-width="1.39" stroke-opacity="0.30" stroke-linecap="round"/>
<polyline points="568,73 575,74 582,74 589,74 596,73 603,71 610,69 616,67 622,64 629,60 634,56 640,52 645,47 649,42 653,36 657,30 660,24 663,17 665,11 667,4 669,-3 671,-9 672,-16 674,-23 675,-30 677,-37 679,-43" fill="none" stroke="#2b66ac" stroke-width="0.86" stroke-opacity="0.32" stroke-linecap="round"/>
<polyline points="287,23 294,26 300,29 306,32 313,35 319,37 326,40 332,43 338,46 345,49 351,52 357,56 363,59 369,63 375,67 381,70 387,74 393,78 399,81 405,84 411,87 418,90 424,93 431,95 438,98 444,99 451,101 458,102 465,103 472,104 479,105 486,106 493,106 500,106 507,106 514,106 521,106 528,106 535,106 542,106 549,105 556,105 563,104 570,103 577,102 583,101 590,99 597,97 604,95 610,93 617,90 623,87 629,83 635,79 640,75 645,70 650,65 654,60 658,54 662,48 665,42 667,35 670,28 671,22 673,15 674,8 675,1 676,-6 677,-13 678,-20" fill="none" stroke="#2b66ac" stroke-width="1.50" stroke-opacity="0.14" stroke-linecap="round"/>
<polyline points="513,-20 518,-15 523,-10 527,-5 532,0 537,5 543,10 548,14 554,18 560,22 566,25 572,28 579,30 586,32 593,33 600,33 607,32 613,31 620,28 626,25 632,22 638,18 643,13 648,7 652,2 656,-4 659,-10 662,-17 665,-23 668,-29 670,-36 673,-42 676,-49" fill="none" stroke="#2c66ab" stroke-width="1.29" stroke-opacity="0.15" stroke-linecap="round"/>
<polyline points="87,-10 94,-12 101,-13 108,-14 114,-16 121,-17 128,-19 135,-20 142,-22 149,-23 155,-25 162,-27 169,-29 175,-31 182,-34 188,-36 195,-40 201,-43 206,-47" fill="none" stroke="#2c66ab" stroke-width="1.48" stroke-opacity="0.24" stroke-linecap="round"/>
<polyline points="329,166 336,169 343,170 349,171 356,172 363,171 370,170 377,168 384,166 390,163 397,160 403,157 409,154 415,151 422,148 428,145 434,142 441,139 447,136 454,134 460,131 467,129 474,127 480,125 487,124 494,122 501,120 508,119 515,118 521,117 528,115 535,114 542,113 549,112 556,111 563,110 570,109 577,107 584,106 590,104 597,102 604,100 610,98 617,95 623,92 629,88 635,84 640,80 645,75 650,70 655,65 659,59 662,53 665,47 668,40 670,34 672,27 674,20 675,13 676,6 677,-1 678,-8 678,-15 679,-22 680,-28 681,-35 682,-42 684,-49" fill="none" stroke="#2c66aa" stroke-width="0.77" stroke-opacity="0.18" stroke-linecap="round"/>
<polyline points="631,65 637,61 642,56 647,51 651,46 655,40 659,34 662,28 664,21 667,15 669,8 670,1 672,-6 673,-13 674,-19 676,-26 677,-33 679,-40 681,-47" fill="none" stroke="#2d66aa" stroke-width="1.10" stroke-opacity="0.36" stroke-linecap="round"/>
<polyline points="380,32 386,35 392,38 398,42 404,46 410,50 415,54 421,58 427,63 432,67 438,71 444,74 450,78 456,81 462,84 469,87 475,89 482,92 489,93 496,95 502,96 509,97 516,98 523,99 530,99 537,100 544,100 551,100 558,99 565,99 572,98 579,97 586,96 593,95 600,93 606,91 613,88 619,85 625,82 631,78 637,74 642,70 647,65 652,59 656,54 660,48 663,42 666,35 668,29 670,22 672,15 673,8 674,1 675,-6 676,-13 677,-20 678,-26 679,-33 681,-40 682,-47" fill="none" stroke="#2d66a9" stroke-width="0.89" stroke-opacity="0.37" stroke-linecap="round"/>
<polyline points="252,65 255,71 258,77 261,83 264,90 267,96 270,103 272,109 275,116 278,122 281,128 284,135 287,141 290,147 294,153 298,159 303,164 308,169 313,173 319,177 326,180 332,182 339,183 346,184 353,183 360,182 367,180 373,178 380,175 386,172 392,168 398,165 404,161 410,158 416,154 422,151 429,147 435,144 441,141 447,138 454,135 460,133 467,130 474,128 480,126 487,124 494,123 501,121 508,120 514,118 521,117 528,116 535,115 542,114 549,113 556,111 563,110 570,109 577,108 583,106 590,105 597,103 604,101 610,98 617,95 623,92 629,89 635,85 640,80 645,76" fill="none" stroke="#2d66a9" stroke-width="1.30" stroke-opacity="0.42" stroke-linecap="round"/>
<polyline points="171,61 175,67 178,73 180,80 183,86 184,93 186,100 187,107 189,114 190,121 191,127 192,134 193,141 194,148 195,155 197,162 198,169 200,175 202,182 205,189 208,195" fill="none" stroke="#2e66a8" stroke-width="0.72" stroke-opacity="0.26" stroke-linecap="round"/>
<polyline points="290,19 296,21 303,23 309,26 316,28 323,30 329,32 336,34 343,37 349,40 355,42 362,45 368,49 374,52 380,56 386,59 392,63 398,67 404,71 410,74 416,78 422,81 428,85 434,87 441,90 447,93 454,95 461,97 468,98 474,100 481,101 488,102 495,103 502,103 509,104 516,104 523,104 530,104 537,104 544,104 551,103 558,103 565,102 572,101 579,100 586,99 593,97 599,96 606,93 613,91 619,88 625,85 631,81 637,77 642,72 647,67 652,62 656,57 660,51 663,44 666,38 668,31 670,25 672,18 673,11 674,4 675,-3 676,-10 677,-17 678,-24" fill="none" stroke="#2e66a8" stroke-width="1.00" stroke-opacity="0.32" stroke-linecap="round"/>
<polyline points="310,107 314,112 319,117 324,122 329,127 335,131 341,134 347,138 354,140 360,142 367,144 374,144 381,145 388,144 395,143 402,142 409,141 416,139 422,137 429,135 436,134 443,132 449,130 456,128 463,126 470,124 477,123 483,121 490,120 497,119 504,118 511,117 518,116 525,115 532,114 539,113 546,112 553,111 559,110 566,109 573,107 580,106 587,104 594,103 600,101 607,98 614,96 620,93 626,89 632,86 638,81 643,77 648,72 653,67 657,61 660,55 664,49 667,43 669,36 671,29 673,23 674,16 675,9 676,2 677,-5 678,-12 679,-19 679,-26 680,-33 682,-40" fill="none" stroke="#2e66a7" stroke-width="1.42" stroke-opacity="0.35" stroke-linecap="round"/>
<polyline points="480,-15 485,-10 489,-5 494,-0 498,5 503,11 507,16 512,21 517,27 521,32 527,36 532,41 538,45 544,48 550,52 556,54 563,57 570,58 577,59 584,60 591,60 598,59 605,58 611,56 618,54 624,51 630,47 636,43 641,39 646,33 650,28 654,22 658,16 661,10 663,3 666,-3 668,-10 670,-17 672,-24 673,-30 675,-37 678,-44" fill="none" stroke="#2f66a7" stroke-width="0.81" stroke-opacity="0.25" stroke-linecap="round"/>
<polyline points="109,68 112,74 116,80 118,86 121,93 123,99 125,106 127,113 129,120 130,126 132,133 134,140 135,147 137,154 139,160 141,167 144,173 147,180 150,186 153,192 157,198" fill="none" stroke="#2f66a6" stroke-width="1.00" stroke-opacity="0.27" stroke-linecap="round"/>
<polyline points="802,106 809,106 816,108 822,111 828,115 833,119 838,124 842,130 845,137 847,143 849,150 850,157 851,164 852,171 853,178 854,185 855,192 856,199" fill="none" stroke="#3066a6" stroke-width="1.16" stroke-opacity="0.20" stroke-linecap="round"/>
<polyline points="-17,58 -14,65 -11,71 -8,77 -6,84 -4,91 -3,98 -2,105 -2,112 -2,119 -1,126 -2,133 -2,140 -2,147 -2,154 -2,161 -2,168 -2,175 -1,182 1,188 2,195" fill="none" stroke="#3066a5" stroke-width="0.95" stroke-opacity="0.44" stroke-linecap="round"/>
<polyline points="251,48 255,53 259,59 263,65 267,71 271,77 274,83 278,89 281,95 284,101 287,108 291,114 294,120 298,126 302,131 306,137 311,142 316,147 321,152 327,156 333,159 339,162 346,164 353,165 360,165 367,165 374,164 381,162 387,160 394,158 401,155 407,153 413,150 420,147 426,144 433,141 439,139 446,136 452,133 459,131 465,129 472,127 479,125 486,123 492,122 499,120 506,119 513,118 520,117 527,115 534,114 541,113 548,112 555,111 561,110 568,109 575,108 582,106 589,105 596,103 602,101 609,98 615,95 622,92 628,89 634,85 639,81 644,76 649,71 654,66" fill="none" stroke="#3066a5" stroke-width="1.47" stroke-opacity="0.37" stroke-linecap="round"/>
<polyline points="529,-5 534,0 539,5 544,10 549,14 555,18 561,22 567,25 574,28 580,30 587,31 594,32 601,32 608,31 615,29 622,27 628,24 634,20 639,16 644,11 649,5 653,-0 656,-6 660,-13 663,-19 666,-25 668,-32 671,-38 674,-45" fill="none" stroke="#3166a4" stroke-width="1.37" stroke-opacity="0.28" stroke-linecap="round"/>
<polyline points="-11,121 -11,128 -12,135 -13,142 -14,149 -15,156 -16,163 -16,170 -17,177 -17,184 -17,191 -17,198" fill="none" stroke="#3166a4" stroke-width="1.22" stroke-opacity="0.39" stroke-linecap="round"/>
<polyline points="452,37 456,42 461,47 466,51 472,56 477,61 483,65 488,69 494,72 501,76 507,79 513,81 520,83 527,85 534,87 540,88 547,89 554,90 561,90 568,90 575,89 582,89 589,88 596,86 603,85 610,83 616,80 622,77 628,73 634,69 640,65 645,60 649,55 654,49 657,43 661,37 664,31 666,24 668,18 670,11 672,4 673,-3 674,-10 675,-17 676,-24 678,-30 679,-37 681,-44" fill="none" stroke="#3266a3" stroke-width="1.23" stroke-opacity="0.14" stroke-linecap="round"/>
<polyline points="672,149 679,146 685,143 692,141 698,138 704,135 710,132 717,128 723,125 729,122 735,118 741,114 747,111 753,107 759,104 765,100 771,96 777,93 783,89 789,86 796,83 802,80 809,78 815,76 822,75 829,75 836,75 843,76 850,79 856,83 861,87 865,93 868,99 871,106 872,112 873,119 873,126 873,133 872,140 872,147 871,154 870,161 869,168 868,175 868,182 868,189 868,196" fill="none" stroke="#3266a3" stroke-width="1.06" stroke-opacity="0.37" stroke-linecap="round"/>
<polyline points="697,90 700,84 703,77 706,71 707,64 709,57 709,50 709,43 709,36 708,29 707,22 705,15 704,9 702,2 700,-5 698,-12 697,-19 696,-25 695,-32 694,-39 694,-46" fill="none" stroke="#3266a2" stroke-width="0.85" stroke-opacity="0.27" stroke-linecap="round"/>
<polyline points="299,39 305,43 311,46 317,50 323,53 329,57 335,61 341,65 347,68 353,72 359,76 365,80 371,83 377,87 383,90 389,93 395,96 402,99 409,101 415,103 422,105 429,107 436,108 443,109 450,109 457,110 464,110 471,110 478,110 485,110 492,110 499,110 506,110 513,110 520,109 527,109 534,108 541,108 548,107 555,106 561,106 568,105 575,104 582,102 589,101 596,99 603,97 609,95 616,92 622,89 628,85 634,82 639,77 644,73 649,68 654,62 658,56 661,50 664,44 667,38 669,31 671,24 673,17 674,11 675,4 676,-3 677,-10 678,-17 679,-24 680,-31" fill="none" stroke="#3366a1" stroke-width="1.46" stroke-opacity="0.39" stroke-linecap="round"/>
<polyline points="330,89 336,93 341,98 347,102 353,106 359,109 365,112 371,115 378,118 385,120 391,121 398,122 405,123 412,123 419,123 426,123 433,122 440,122 447,121 454,120 461,120 468,119 475,118 482,117 489,116 496,115 503,115 510,114 517,113 524,112 531,112 538,111 545,110 552,109 559,108 565,107 572,106 579,105 586,103 593,102 600,100 606,97 613,95 619,92 625,89 631,85 637,81 642,76 647,71 652,66 656,61 660,55 663,49 666,42 669,36 671,29 673,22 674,15 675,9 676,2 677,-5 678,-12 678,-19 679,-26 680,-33 682,-40 683,-47" fill="none" stroke="#3466a1" stroke-width="0.73" stroke-opacity="0.25" stroke-linecap="round"/>
<polyline points="903,46 908,51 912,57 915,63 917,70 918,77 919,84 918,91 917,98 915,104 913,111 910,117 907,124 904,130 901,137 898,143 896,149 893,156 890,162 888,169 886,175 884,182 883,189 882,196" fill="none" stroke="#3466a0" stroke-width="1.04" stroke-opacity="0.25" stroke-linecap="round"/>
<polyline points="431,120 438,119 445,119 452,118 459,118 466,117 473,117 480,116 487,115 494,115 501,114 508,113 515,113 522,112 529,111 535,110 542,110 549,109 556,108 563,107 570,106 577,105 584,103 591,102 598,100 604,98 611,95 617,93 623,89 629,86 635,82 641,77 646,73 650,68 655,62 659,56 662,50 665,44 668,37 670,31 672,24 673,17 675,10 676,3 677,-4 677,-11 678,-17 679,-24 680,-31 681,-38 683,-45" fill="none" stroke="#3466a0" stroke-width="1.37" stroke-opacity="0.33" stroke-linecap="round"/>
<polyline points="867,-13 872,-17 878,-22 883,-26 889,-30 895,-33 901,-37 907,-41 913,-45 919,-48" fill="none" stroke="#35669f" stroke-width="0.78" stroke-opacity="0.40" stroke-linecap="round"/>
<polyline points="489,1 493,6 497,12 502,17 506,23 511,28 516,33 521,38 526,42 532,46 538,50 544,54 550,57 557,59 564,61 570,62 577,63 584,64 591,64 598,63 605,61 612,60 618,57 625,54 631,50 636,46 642,41 646,36 651,31 654,25 658,19 661,13 663,6 666,-1 668,-7 670,-14 671,-21 673,-28 675,-34 677,-41 679,-48" fill="none" stroke="#35669e" stroke-width="1.32" stroke-opacity="0.30" stroke-linecap="round"/>
<polyline points="386,162 393,159 399,157 406,154 412,151 418,148 425,145 431,142 437,140 444,137 450,134 457,132 464,130 470,128 477,126 484,124 491,122 498,121 504,119 511,118 518,117 525,116 532,115 539,114 546,113 553,112 560,110 567,109 573,108 580,107 587,105 594,103 601,101 607,99 614,96 620,93 626,90 632,86 638,82 643,77 648,73 653,67 657,62 661,56 664,50 667,43 669,37 671,30 673,23 674,16 676,9 676,3 677,-4 678,-11 679,-18 679,-25 680,-32 682,-39 683,-46" fill="none" stroke="#36669e" stroke-width="1.54" stroke-opacity="0.20" stroke-linecap="round"/>
<polyline points="-34,75 -32,82 -31,89 -31,96 -31,103 -32,110 -33,117 -34,124 -36,131 -38,137 -41,144 -43,151 -46,157 -48,163 -51,170 -54,176 -57,183 -60,189 -63,195" fill="none" stroke="#36669d" stroke-width="0.81" stroke-opacity="0.32" stroke-linecap="round"/>
<polyline points="804,94 811,94 818,94 825,96 831,98 837,101 843,106 847,111 851,117 854,123 856,130 857,137 858,144 859,151 859,158 859,165 859,172 860,179 860,186 861,193 861,200" fill="none" stroke="#37669c" stroke-width="1.59" stroke-opacity="0.15" stroke-linecap="round"/>
<polyline points="738,52 738,45 738,38 737,31 735,24 733,18 730,11 727,5 724,-2 721,-8 718,-14 715,-21 713,-27 710,-34 708,-40 707,-47" fill="none" stroke="#37669c" stroke-width="0.87" stroke-opacity="0.39" stroke-linecap="round"/>
<polyline points="289,-4 296,-4 303,-4 310,-5 317,-6 324,-7 331,-8 338,-10 345,-11 351,-13 358,-14 365,-15 372,-16 379,-17 386,-17 393,-17 400,-17 407,-16 414,-14 420,-12 427,-9 433,-6 439,-2 444,2 450,7 455,12 460,17 464,22 469,27 474,32 478,38 483,43 488,48 493,52 498,57 504,61 510,65 516,69 522,72 529,74 535,77 542,79 549,80 556,81 563,82 570,82 577,82 584,82 591,81 598,80 604,78 611,76 618,73 624,70 630,67 635,62 641,58 646,53 650,48 654,42 658,36 661,30 664,23 666,17 668,10 670,3 671,-4 673,-11 674,-18 675,-24" fill="none" stroke="#38669b" stroke-width="1.06" stroke-opacity="0.27" stroke-linecap="round"/>
<polyline points="781,17 780,10 778,3 775,-4 773,-10 770,-16 766,-22 762,-28 758,-34 754,-40 750,-45" fill="none" stroke="#38659b" stroke-width="1.15" stroke-opacity="0.16" stroke-linecap="round"/>
<polyline points="-15,91 -14,98 -14,105 -14,112 -14,119 -15,126 -16,133 -17,140 -18,147 -19,154 -20,161 -21,168 -22,175 -23,182 -24,189 -24,196" fill="none" stroke="#38659a" stroke-width="0.77" stroke-opacity="0.25" stroke-linecap="round"/>
<polyline points="350,10 357,11 364,12 371,14 377,16 384,18 390,21 397,24 403,27 409,31 414,35 420,40 425,44 431,48 436,53 441,57 447,62 452,66 458,70 464,74 470,77 476,81 483,83 489,86 496,88 503,90 509,92 516,93 523,94 530,95 537,96 544,96 551,97 558,96 565,96 572,96 579,95 586,94 593,92 600,91 606,89 613,86 619,83 625,80 631,76 637,72 642,68 647,63 652,57 656,52 659,46 663,39 665,33 668,26 670,20 671,13 673,6 674,-1 675,-8 676,-15 677,-22 678,-29 679,-36 681,-42 683,-49" fill="none" stroke="#39659a" stroke-width="0.83" stroke-opacity="0.18" stroke-linecap="round"/>
<polyline points="335,105 341,109 346,113 352,116 359,120 365,122 372,125 378,127 385,128 392,129 399,129 406,129 413,129 420,128 427,127 434,126 441,125 448,124 455,123 462,122 469,121 476,120 482,119 489,118 496,117 503,116 510,115 517,114 524,113 531,112 538,111 545,111 552,110 559,109 566,108 573,107 580,105 586,104 593,102 600,100 606,98 613,95 619,92 625,89 631,85 637,81 642,77 647,72 652,66 656,61 660,55 663,49 666,42 669,36 671,29 673,22 674,16 675,9 676,2 677,-5 678,-12 678,-19 679,-26 680,-33 682,-40 683,-47" fill="none" stroke="#396599" stroke-width="1.41" stroke-opacity="0.24" stroke-linecap="round"/>
<polyline points="726,29 724,22 722,16 719,9 717,3 714,-4 711,-10 709,-17 707,-23 705,-30 703,-37 702,-44" fill="none" stroke="#396599" stroke-width="1.00" stroke-opacity="0.30" stroke-linecap="round"/>
<polyline points="629,88 635,84 640,80 646,75 650,70 655,64 659,59 662,53 665,46 668,40 670,33 672,26 674,20 675,13 676,6 677,-1 677,-8 678,-15 679,-22 680,-29 681,-36 682,-43 684,-50" fill="none" stroke="#3a6598" stroke-width="1.49" stroke-opacity="0.22" stroke-linecap="round"/>
<polyline points="242,-14 249,-14 256,-14 263,-14 270,-15 277,-15 284,-16 291,-17 297,-19 304,-21 310,-24 317,-27 322,-31 328,-35 333,-40 338,-45" fill="none" stroke="#3a6598" stroke-width="1.50" stroke-opacity="0.38" stroke-linecap="round"/>
<polyline points="681,111 686,106 690,100 694,95 698,89 701,83 704,76 707,70 708,63 709,56 710,49 710,42 709,35 708,28 707,21 705,14 704,8 702,1 700,-6 699,-13 697,-20 696,-26 695,-33 695,-40 694,-47" fill="none" stroke="#3b6597" stroke-width="0.78" stroke-opacity="0.37" stroke-linecap="round"/>
<polyline points="752,146 759,146 766,147 773,148 779,150 786,153 792,157 797,161 803,166 807,171 812,176 815,182 819,188 822,194" fill="none" stroke="#3b6596" stroke-width="0.87" stroke-opacity="0.41" stroke-linecap="round"/>
<polyline points="885,92 886,99 886,106 886,113 885,120 884,127 883,134 881,141 880,148 878,154 877,161 875,168 874,175 873,182 873,189 873,196" fill="none" stroke="#3c6596" stroke-width="0.96" stroke-opacity="0.39" stroke-linecap="round"/>
<polyline points="304,123 308,129 313,134 318,139 323,144 328,148 335,152 341,154 347,157 354,158 361,159 368,159 375,158 382,157 389,155 396,154 402,151 409,149 415,146 422,144 428,141 435,139 442,136 448,134 455,131 461,129 468,127 475,125 482,124 488,122 495,121 502,119 509,118 516,117 523,116 530,115 537,114 544,113 551,112 557,111 564,109 571,108 578,107 585,105 592,104 598,102 605,100 612,97 618,94 624,91 630,87 636,83 641,79 646,74 651,69 656,63 659,58 663,51 666,45 669,39 671,32 673,25 674,18 675,11 676,5 677,-2 678,-9 678,-16 679,-23 680,-30" fill="none" stroke="#3c6595" stroke-width="1.36" stroke-opacity="0.35" stroke-linecap="round"/>
<polyline points="654,69 658,63 662,57 665,51 668,44 670,38 672,31 674,24 675,17 676,11 677,4 678,-3 678,-10 679,-17 680,-24 681,-31 682,-38 683,-45" fill="none" stroke="#3c6595" stroke-width="1.45" stroke-opacity="0.31" stroke-linecap="round"/>
<polyline points="485,15 490,21 494,26 499,31 503,36 508,41 513,46 519,50 524,55 530,58 537,61 543,64 550,67 556,69 563,70 570,71 577,72 584,72 591,71 598,70 605,69 612,67 618,64 624,61 630,57 636,53 641,49 646,43 650,38 654,32 658,26 661,20 664,13 666,7 668,0 670,-7 671,-14 673,-20 674,-27 676,-34 678,-41 680,-47" fill="none" stroke="#3d6594" stroke-width="1.48" stroke-opacity="0.27" stroke-linecap="round"/>
<polyline class="mote" points="165,-12 172,-12 179,-12 186,-12 193,-12 200,-11 207,-11 214,-10 220,-9 227,-8 234,-7 241,-6 248,-5 255,-4 262,-3 269,-2 276,-1 283,-0 290,0 297,1 304,1 311,1 318,1 325,0 332,-0 339,-1 346,-1 353,-2 360,-2 367,-2 374,-1 381,-1 388,1 394,2 401,5 407,7 414,11 420,14 425,18 431,23 436,27 441,32 446,37 451,42 456,47 461,52 466,56 472,61 477,65 483,69 489,73 495,76 502,79 508,82 515,84 521,86 528,88 535,89 542,90 549,91 556,91 563,91 570,91 577,91 584,90 591,89 598,87 604,85 611,83 617,80" fill="none" stroke="#0969da" stroke-width="2.1" stroke-opacity="0.9" stroke-linecap="round" pathLength="1000" stroke-dasharray="45 955" style="animation-duration:10.7s;animation-delay:-7.3s"/>
<polyline class="mote" points="267,55 271,60 276,65 280,71 284,77 288,83 292,89 295,94 299,100 303,106 308,111 312,117 317,122 322,127 327,132 333,136 338,140 345,143 351,145 358,147 365,148 372,149 379,149 386,148 393,147 400,146 406,144 413,142 420,140 426,138 433,136 440,134 446,132 453,130 460,128 467,126 473,124 480,123 487,121 494,120 501,119 508,117 515,116 522,115 529,114 535,113 542,112 549,111 556,110 563,109 570,108 577,107 584,105 591,104 597,102 604,100 611,97 617,94 623,91 629,88 635,84 640,79 646,75 650,69 655,64 659,58 662,52 665,46 668,39 670,33" fill="none" stroke="#0969da" stroke-width="2.1" stroke-opacity="0.9" stroke-linecap="round" pathLength="1000" stroke-dasharray="45 955" style="animation-duration:10.7s;animation-delay:-6.2s"/>
<polyline class="mote" points="210,-8 217,-7 224,-6 231,-5 238,-4 244,-2 251,-1 258,1 265,2 272,4 279,5 285,7 292,8 299,9 306,10 313,11 320,12 327,13 334,13 341,14 348,15 355,16 362,18 368,20 375,22 382,25 388,28 394,31 400,34 406,38 412,42 417,47 423,51 428,55 434,60 439,64 445,68 451,72 457,76 463,79 469,82 475,85 482,88 489,90 495,92 502,93 509,95 516,96 523,97 530,97 537,98 544,98 551,98 558,98 565,98 572,97 579,96 586,95 592,94 599,92 606,90 612,88 619,85 625,81 631,78 637,74 642,69 647,64 651,59 656,53" fill="none" stroke="#0969da" stroke-width="2.1" stroke-opacity="0.9" stroke-linecap="round" pathLength="1000" stroke-dasharray="45 955" style="animation-duration:10.7s;animation-delay:-9.1s"/>
<polyline class="mote" points="271,87 275,93 278,99 281,105 284,112 287,118 290,124 294,130 297,136 301,142 306,147 310,153 316,157 321,161 327,165 334,168 340,170 347,171 354,172 361,171 368,170 375,169 382,167 388,164 395,161 401,158 407,155 413,152 420,149 426,146 432,143 439,140 445,137 452,135 458,132 465,130 471,128 478,126 485,124 492,122 499,121 505,119 512,118 519,117 526,116 533,115 540,114 547,113 554,112 561,110 568,109 574,108 581,106 588,105 595,103 602,101 608,99 615,96 621,93 627,89 633,86 639,81 644,77 649,72 653,67 657,61 661,55 664,49 667,42 670,36" fill="none" stroke="#0969da" stroke-width="2.1" stroke-opacity="0.9" stroke-linecap="round" pathLength="1000" stroke-dasharray="45 955" style="animation-duration:10.7s;animation-delay:-0.3s"/>
<polyline class="mote" points="300,5 307,5 314,5 321,5 328,6 335,6 342,6 349,6 356,6 363,7 369,8 376,9 383,11 390,14 396,16 402,20 408,23 414,27 420,31 425,36 431,40 436,45 441,49 446,54 452,58 457,63 463,67 469,71 475,75 481,78 487,81 493,84 500,86 507,88 513,90 520,92 527,93 534,94 541,94 548,95 555,95 562,95 569,94 576,94 583,93 590,92 597,90 603,88 610,86 617,83 623,80 629,77 635,73 640,68 645,64 650,58 654,53 658,47 661,41 664,34 667,28 669,21 671,14 672,8 673,1 674,-6 675,-13 677,-20 678,-27 679,-34" fill="none" stroke="#0969da" stroke-width="2.1" stroke-opacity="0.9" stroke-linecap="round" pathLength="1000" stroke-dasharray="45 955" style="animation-duration:10.7s;animation-delay:-2.5s"/>
<polyline class="mote" points="98,-6 105,-7 112,-7 119,-8 126,-8 133,-8 140,-8 147,-8 154,-8 161,-8 168,-7 175,-7 182,-6 189,-4 196,-3 203,-2 210,0 216,2 223,4 230,7 236,9 243,12 249,15 255,18 261,21 268,25 274,28 280,32 285,36 291,39 297,43 303,47 309,51 314,55 320,59 326,63 332,67 337,71 343,75 349,79 355,83 361,87 367,90 373,94 379,97 385,100 392,103 398,105 405,107 412,109 419,110 426,111 433,112 440,113 447,113 454,113 461,113 468,113 475,113 482,113 488,112 495,112 502,111 509,111 516,111 523,110 530,110 537,109 544,108 551,108" fill="none" stroke="#0969da" stroke-width="2.1" stroke-opacity="0.9" stroke-linecap="round" pathLength="1000" stroke-dasharray="45 955" style="animation-duration:10.7s;animation-delay:-11.3s"/>
<polyline class="mote" points="279,38 284,43 290,47 295,51 300,56 306,60 311,65 317,69 322,74 327,78 333,83 338,87 344,91 350,95 356,99 362,103 368,106 374,109 381,111 387,114 394,116 401,117 408,118 415,119 422,119 429,119 436,119 443,119 450,118 457,118 464,117 471,117 478,116 485,115 491,115 498,114 505,113 512,113 519,112 526,111 533,111 540,110 547,109 554,108 561,107 568,106 575,105 582,104 589,102 595,101 602,99 609,96 615,93 621,90 628,87 633,83 639,79 644,74 649,69 654,64 658,58 661,52 664,46 667,39 669,33 671,26 673,19 674,12 675,6 676,-1" fill="none" stroke="#0969da" stroke-width="2.1" stroke-opacity="0.9" stroke-linecap="round" pathLength="1000" stroke-dasharray="45 955" style="animation-duration:10.7s;animation-delay:-8.5s"/>
<polyline class="mote" points="301,126 305,131 309,137 314,142 319,147 325,151 331,155 337,158 344,160 350,162 357,163 364,163 371,162 378,161 385,159 392,157 398,155 405,152 411,150 418,147 424,144 431,141 437,139 444,136 450,134 457,131 463,129 470,127 477,125 484,124 490,122 497,121 504,119 511,118 518,117 525,116 532,115 539,114 546,113 552,111 559,110 566,109 573,108 580,107 587,105 594,103 600,101 607,99 613,96 620,93 626,90 632,86 637,82 643,78 648,73 652,67 657,62 660,56 664,50 667,43 669,37 671,30 673,23 674,17 675,10 676,3 677,-4 678,-11 679,-18 679,-25" fill="none" stroke="#0969da" stroke-width="2.1" stroke-opacity="0.9" stroke-linecap="round" pathLength="1000" stroke-dasharray="45 955" style="animation-duration:10.7s;animation-delay:-9.8s"/>
<polyline class="mote" points="287,23 294,26 300,29 306,32 313,35 319,37 326,40 332,43 338,46 345,49 351,52 357,56 363,59 369,63 375,67 381,70 387,74 393,78 399,81 405,84 411,87 418,90 424,93 431,95 438,98 444,99 451,101 458,102 465,103 472,104 479,105 486,106 493,106 500,106 507,106 514,106 521,106 528,106 535,106 542,106 549,105 556,105 563,104 570,103 577,102 583,101 590,99 597,97 604,95 610,93 617,90 623,87 629,83 635,79 640,75 645,70 650,65 654,60 658,54 662,48 665,42 667,35 670,28 671,22 673,15 674,8 675,1 676,-6 677,-13 678,-20" fill="none" stroke="#0969da" stroke-width="2.1" stroke-opacity="0.9" stroke-linecap="round" pathLength="1000" stroke-dasharray="45 955" style="animation-duration:10.7s;animation-delay:-6.3s"/>
<polyline class="mote" points="252,65 255,71 258,77 261,83 264,90 267,96 270,103 272,109 275,116 278,122 281,128 284,135 287,141 290,147 294,153 298,159 303,164 308,169 313,173 319,177 326,180 332,182 339,183 346,184 353,183 360,182 367,180 373,178 380,175 386,172 392,168 398,165 404,161 410,158 416,154 422,151 429,147 435,144 441,141 447,138 454,135 460,133 467,130 474,128 480,126 487,124 494,123 501,121 508,120 514,118 521,117 528,116 535,115 542,114 549,113 556,111 563,110 570,109 577,108 583,106 590,105 597,103 604,101 610,98 617,95 623,92 629,89 635,85 640,80 645,76" fill="none" stroke="#0969da" stroke-width="2.1" stroke-opacity="0.9" stroke-linecap="round" pathLength="1000" stroke-dasharray="45 955" style="animation-duration:10.7s;animation-delay:-11.3s"/>
<polyline class="mote" points="290,19 296,21 303,23 309,26 316,28 323,30 329,32 336,34 343,37 349,40 355,42 362,45 368,49 374,52 380,56 386,59 392,63 398,67 404,71 410,74 416,78 422,81 428,85 434,87 441,90 447,93 454,95 461,97 468,98 474,100 481,101 488,102 495,103 502,103 509,104 516,104 523,104 530,104 537,104 544,104 551,103 558,103 565,102 572,101 579,100 586,99 593,97 599,96 606,93 613,91 619,88 625,85 631,81 637,77 642,72 647,67 652,62 656,57 660,51 663,44 666,38 668,31 670,25 672,18 673,11 674,4 675,-3 676,-10 677,-17 678,-24" fill="none" stroke="#0969da" stroke-width="2.1" stroke-opacity="0.9" stroke-linecap="round" pathLength="1000" stroke-dasharray="45 955" style="animation-duration:10.7s;animation-delay:-6.3s"/>
<polyline class="mote" points="310,107 314,112 319,117 324,122 329,127 335,131 341,134 347,138 354,140 360,142 367,144 374,144 381,145 388,144 395,143 402,142 409,141 416,139 422,137 429,135 436,134 443,132 449,130 456,128 463,126 470,124 477,123 483,121 490,120 497,119 504,118 511,117 518,116 525,115 532,114 539,113 546,112 553,111 559,110 566,109 573,107 580,106 587,104 594,103 600,101 607,98 614,96 620,93 626,89 632,86 638,81 643,77 648,72 653,67 657,61 660,55 664,49 667,43 669,36 671,29 673,23 674,16 675,9 676,2 677,-5 678,-12 679,-19 679,-26 680,-33 682,-40" fill="none" stroke="#0969da" stroke-width="2.1" stroke-opacity="0.9" stroke-linecap="round" pathLength="1000" stroke-dasharray="45 955" style="animation-duration:10.7s;animation-delay:-4.8s"/>
<polyline class="mote" points="251,48 255,53 259,59 263,65 267,71 271,77 274,83 278,89 281,95 284,101 287,108 291,114 294,120 298,126 302,131 306,137 311,142 316,147 321,152 327,156 333,159 339,162 346,164 353,165 360,165 367,165 374,164 381,162 387,160 394,158 401,155 407,153 413,150 420,147 426,144 433,141 439,139 446,136 452,133 459,131 465,129 472,127 479,125 486,123 492,122 499,120 506,119 513,118 520,117 527,115 534,114 541,113 548,112 555,111 561,110 568,109 575,108 582,106 589,105 596,103 602,101 609,98 615,95 622,92 628,89 634,85 639,81 644,76 649,71 654,66" fill="none" stroke="#0969da" stroke-width="2.1" stroke-opacity="0.9" stroke-linecap="round" pathLength="1000" stroke-dasharray="45 955" style="animation-duration:10.7s;animation-delay:-9.4s"/>
<polyline class="mote" points="299,39 305,43 311,46 317,50 323,53 329,57 335,61 341,65 347,68 353,72 359,76 365,80 371,83 377,87 383,90 389,93 395,96 402,99 409,101 415,103 422,105 429,107 436,108 443,109 450,109 457,110 464,110 471,110 478,110 485,110 492,110 499,110 506,110 513,110 520,109 527,109 534,108 541,108 548,107 555,106 561,106 568,105 575,104 582,102 589,101 596,99 603,97 609,95 616,92 622,89 628,85 634,82 639,77 644,73 649,68 654,62 658,56 661,50 664,44 667,38 669,31 671,24 673,17 674,11 675,4 676,-3 677,-10 678,-17 679,-24 680,-31" fill="none" stroke="#0969da" stroke-width="2.1" stroke-opacity="0.9" stroke-linecap="round" pathLength="1000" stroke-dasharray="45 955" style="animation-duration:10.7s;animation-delay:-8.7s"/>
<polyline class="mote" points="289,-4 296,-4 303,-4 310,-5 317,-6 324,-7 331,-8 338,-10 345,-11 351,-13 358,-14 365,-15 372,-16 379,-17 386,-17 393,-17 400,-17 407,-16 414,-14 420,-12 427,-9 433,-6 439,-2 444,2 450,7 455,12 460,17 464,22 469,27 474,32 478,38 483,43 488,48 493,52 498,57 504,61 510,65 516,69 522,72 529,74 535,77 542,79 549,80 556,81 563,82 570,82 577,82 584,82 591,81 598,80 604,78 611,76 618,73 624,70 630,67 635,62 641,58 646,53 650,48 654,42 658,36 661,30 664,23 666,17 668,10 670,3 671,-4 673,-11 674,-18 675,-24" fill="none" stroke="#0969da" stroke-width="2.1" stroke-opacity="0.9" stroke-linecap="round" pathLength="1000" stroke-dasharray="45 955" style="animation-duration:10.7s;animation-delay:-8.7s"/>
<polyline class="mote" points="304,123 308,129 313,134 318,139 323,144 328,148 335,152 341,154 347,157 354,158 361,159 368,159 375,158 382,157 389,155 396,154 402,151 409,149 415,146 422,144 428,141 435,139 442,136 448,134 455,131 461,129 468,127 475,125 482,124 488,122 495,121 502,119 509,118 516,117 523,116 530,115 537,114 544,113 551,112 557,111 564,109 571,108 578,107 585,105 592,104 598,102 605,100 612,97 618,94 624,91 630,87 636,83 641,79 646,74 651,69 656,63 659,58 663,51 666,45 669,39 671,32 673,25 674,18 675,11 676,5 677,-2 678,-9 678,-16 679,-23 680,-30" fill="none" stroke="#0969da" stroke-width="2.1" stroke-opacity="0.9" stroke-linecap="round" pathLength="1000" stroke-dasharray="45 955" style="animation-duration:10.7s;animation-delay:-8.2s"/>
<polyline class="mote" points="319,89 325,94 330,99 335,103 341,108 346,112 352,115 359,119 365,121 371,124 378,126 385,127 392,128 399,128 406,128 413,128 420,128 427,127 434,126 441,125 448,124 455,123 462,122 468,121 475,120 482,118 489,117 496,117 503,116 510,115 517,114 524,113 531,112 538,111 545,111 552,110 559,109 566,108 573,107 579,105 586,104 593,102 600,100 606,98 613,95 619,92 625,89 631,85 637,81 642,77 647,72 652,67 656,61 660,55 663,49 666,43 669,36 671,29 673,23 674,16 675,9 676,2 677,-5 678,-12 678,-19 679,-26 680,-33 682,-40 683,-47" fill="none" stroke="#0969da" stroke-width="2.1" stroke-opacity="0.9" stroke-linecap="round" pathLength="1000" stroke-dasharray="45 955" style="animation-duration:10.5s;animation-delay:-3.8s"/>
<polyline class="mote" points="-46,-3 -39,-2 -32,-1 -26,-0 -19,1 -12,1 -5,2 2,2 9,2 16,2 23,2 30,2 37,2 44,1 51,1 58,0 65,-0 72,-1 79,-1 86,-1 93,-2 100,-2 107,-2 114,-2 121,-1 128,-1 135,-0 142,1 149,2 156,3 163,5 169,7 176,9 182,12 189,15 195,18 201,22 207,26 212,30 218,35 222,39 227,45 232,50 236,56 239,62 243,68 246,74 249,80 251,87 254,94 256,100 258,107 261,113 263,120 265,127 267,133 270,140 272,146 275,153 278,159 282,165 285,171 290,177 294,182 300,187 305,191 311,194 318,197 324,199" fill="none" stroke="#0969da" stroke-width="2.1" stroke-opacity="0.9" stroke-linecap="round" pathLength="1000" stroke-dasharray="45 955" style="animation-duration:10.5s;animation-delay:-5.9s"/>
<polyline class="mote" points="329,166 336,169 343,170 349,171 356,172 363,171 370,170 377,168 384,166 390,163 397,160 403,157 409,154 415,151 422,148 428,145 434,142 441,139 447,136 454,134 460,131 467,129 474,127 480,125 487,124 494,122 501,120 508,119 515,118 521,117 528,115 535,114 542,113 549,112 556,111 563,110 570,109 577,107 584,106 590,104 597,102 604,100 610,98 617,95 623,92 629,88 635,84 640,80 645,75 650,70 655,65 659,59 662,53 665,47 668,40 670,34 672,27 674,20 675,13 676,6 677,-1 678,-8 678,-15 679,-22 680,-28 681,-35 682,-42 684,-49" fill="none" stroke="#0969da" stroke-width="2.1" stroke-opacity="0.9" stroke-linecap="round" pathLength="1000" stroke-dasharray="45 955" style="animation-duration:10.3s;animation-delay:-10.5s"/>
<polyline class="mote" points="330,89 336,93 341,98 347,102 353,106 359,109 365,112 371,115 378,118 385,120 391,121 398,122 405,123 412,123 419,123 426,123 433,122 440,122 447,121 454,120 461,120 468,119 475,118 482,117 489,116 496,115 503,115 510,114 517,113 524,112 531,112 538,111 545,110 552,109 559,108 565,107 572,106 579,105 586,103 593,102 600,100 606,97 613,95 619,92 625,89 631,85 637,81 642,76 647,71 652,66 656,61 660,55 663,49 666,42 669,36 671,29 673,22 674,15 675,9 676,2 677,-5 678,-12 678,-19 679,-26 680,-33 682,-40 683,-47" fill="none" stroke="#0969da" stroke-width="2.1" stroke-opacity="0.9" stroke-linecap="round" pathLength="1000" stroke-dasharray="45 955" style="animation-duration:10.2s;animation-delay:-7.7s"/>
<polyline class="mote" points="333,87 338,92 344,96 350,100 356,104 362,107 368,110 374,113 381,115 388,117 394,119 401,120 408,121 415,121 422,121 429,121 436,121 443,120 450,120 457,119 464,118 471,118 478,117 485,116 492,115 499,115 506,114 513,113 520,112 527,112 534,111 541,110 548,109 555,109 562,108 569,107 575,105 582,104 589,102 596,101 603,99 609,96 616,93 622,90 628,87 634,83 639,79 645,74 649,69 654,64 658,58 661,52 665,46 667,39 670,33 672,26 673,19 674,12 675,5 676,-2 677,-9 678,-16 679,-23 680,-30 681,-36 682,-43" fill="none" stroke="#0969da" stroke-width="2.1" stroke-opacity="0.9" stroke-linecap="round" pathLength="1000" stroke-dasharray="45 955" style="animation-duration:10.0s;animation-delay:-7.0s"/>
<polyline class="mote" points="335,105 341,109 346,113 352,116 359,120 365,122 372,125 378,127 385,128 392,129 399,129 406,129 413,129 420,128 427,127 434,126 441,125 448,124 455,123 462,122 469,121 476,120 482,119 489,118 496,117 503,116 510,115 517,114 524,113 531,112 538,111 545,111 552,110 559,109 566,108 573,107 580,105 586,104 593,102 600,100 606,98 613,95 619,92 625,89 631,85 637,81 642,77 647,72 652,66 656,61 660,55 663,49 666,42 669,36 671,29 673,22 674,16 675,9 676,2 677,-5 678,-12 678,-19 679,-26 680,-33 682,-40 683,-47" fill="none" stroke="#0969da" stroke-width="2.1" stroke-opacity="0.9" stroke-linecap="round" pathLength="1000" stroke-dasharray="45 955" style="animation-duration:10.0s;animation-delay:-3.8s"/>
<polyline class="mote" points="345,23 352,25 359,27 365,29 372,32 378,35 384,38 390,42 396,45 402,49 408,53 413,57 419,61 425,65 431,69 437,73 443,77 449,80 455,83 461,86 468,89 474,91 481,93 488,95 495,96 502,98 509,99 515,99 522,100 529,100 536,101 543,101 550,100 557,100 564,100 571,99 578,98 585,97 592,95 599,94 606,92 612,89 618,86 625,83 631,79 636,75 642,71 647,66 651,61 655,55 659,49 662,43 665,36 668,30 670,23 671,16 673,10 674,3 675,-4 676,-11 677,-18 678,-25 679,-32 681,-39 682,-46" fill="none" stroke="#0969da" stroke-width="2.1" stroke-opacity="0.9" stroke-linecap="round" pathLength="1000" stroke-dasharray="45 955" style="animation-duration:9.9s;animation-delay:-4.0s"/>
<polyline class="mote" points="350,10 357,11 364,12 371,14 377,16 384,18 390,21 397,24 403,27 409,31 414,35 420,40 425,44 431,48 436,53 441,57 447,62 452,66 458,70 464,74 470,77 476,81 483,83 489,86 496,88 503,90 509,92 516,93 523,94 530,95 537,96 544,96 551,97 558,96 565,96 572,96 579,95 586,94 593,92 600,91 606,89 613,86 619,83 625,80 631,76 637,72 642,68 647,63 652,57 656,52 659,46 663,39 665,33 668,26 670,20 671,13 673,6 674,-1 675,-8 676,-15 677,-22 678,-29 679,-36 681,-42 683,-49" fill="none" stroke="#0969da" stroke-width="2.1" stroke-opacity="0.9" stroke-linecap="round" pathLength="1000" stroke-dasharray="45 955" style="animation-duration:9.9s;animation-delay:-11.6s"/>
<polyline class="mote" points="355,90 361,94 367,97 373,100 379,103 386,106 392,108 399,110 406,112 413,113 420,114 427,115 434,115 441,115 448,115 455,115 462,115 469,115 476,114 483,114 490,113 497,113 504,112 511,112 518,111 525,111 532,110 539,109 546,109 552,108 559,107 566,106 573,105 580,104 587,102 594,101 600,99 607,96 614,94 620,91 626,87 632,84 638,79 643,75 648,70 652,65 657,59 660,53 664,47 666,41 669,34 671,27 673,21 674,14 675,7 676,-0 677,-7 678,-14 678,-21 679,-28 680,-35 682,-42 683,-49" fill="none" stroke="#0969da" stroke-width="2.1" stroke-opacity="0.9" stroke-linecap="round" pathLength="1000" stroke-dasharray="45 955" style="animation-duration:9.6s;animation-delay:-9.2s"/>
<polyline class="mote" points="380,32 386,35 392,38 398,42 404,46 410,50 415,54 421,58 427,63 432,67 438,71 444,74 450,78 456,81 462,84 469,87 475,89 482,92 489,93 496,95 502,96 509,97 516,98 523,99 530,99 537,100 544,100 551,100 558,99 565,99 572,98 579,97 586,96 593,95 600,93 606,91 613,88 619,85 625,82 631,78 637,74 642,70 647,65 652,59 656,54 660,48 663,42 666,35 668,29 670,22 672,15 673,8 674,1 675,-6 676,-13 677,-20 678,-26 679,-33 681,-40 682,-47" fill="none" stroke="#0969da" stroke-width="2.1" stroke-opacity="0.9" stroke-linecap="round" pathLength="1000" stroke-dasharray="45 955" style="animation-duration:9.1s;animation-delay:-3.3s"/>
<polyline class="mote" points="377,86 383,90 389,93 395,96 402,98 408,101 415,103 422,105 429,106 436,107 443,108 449,109 456,110 463,110 470,110 477,110 484,110 491,110 498,110 505,110 512,109 519,109 526,109 533,108 540,108 547,107 554,106 561,106 568,105 575,104 582,102 589,101 596,99 602,97 609,95 615,92 622,89 628,86 634,82 639,77 644,73 649,68 654,62 658,57 661,50 664,44 667,38 669,31 671,24 673,18 674,11 675,4 676,-3 677,-10 678,-17 679,-24 680,-31 681,-38 682,-45" fill="none" stroke="#0969da" stroke-width="2.1" stroke-opacity="0.9" stroke-linecap="round" pathLength="1000" stroke-dasharray="45 955" style="animation-duration:9.0s;animation-delay:-7.9s"/>
<polyline class="mote" points="386,162 393,159 399,157 406,154 412,151 418,148 425,145 431,142 437,140 444,137 450,134 457,132 464,130 470,128 477,126 484,124 491,122 498,121 504,119 511,118 518,117 525,116 532,115 539,114 546,113 553,112 560,110 567,109 573,108 580,107 587,105 594,103 601,101 607,99 614,96 620,93 626,90 632,86 638,82 643,77 648,73 653,67 657,62 661,56 664,50 667,43 669,37 671,30 673,23 674,16 676,9 676,3 677,-4 678,-11 679,-18 679,-25 680,-32 682,-39 683,-46" fill="none" stroke="#0969da" stroke-width="2.1" stroke-opacity="0.9" stroke-linecap="round" pathLength="1000" stroke-dasharray="45 955" style="animation-duration:9.0s;animation-delay:-7.5s"/>
<polyline class="mote" points="416,-28 423,-27 430,-25 436,-23 443,-20 449,-16 454,-12 460,-8 465,-3 470,2 475,7 479,12 484,18 488,23 493,29 497,34 502,39 507,44 512,48 518,53 524,57 530,60 536,64 542,66 549,69 556,70 562,72 569,73 576,73 583,73 590,73 597,72 604,70 611,68 617,66 624,63 630,59 635,55 641,50 646,45 650,40 654,34 657,28 661,22 663,16 666,9 668,2 670,-5 671,-11 673,-18 674,-25 676,-32 678,-39 680,-45" fill="none" stroke="#0969da" stroke-width="2.1" stroke-opacity="0.9" stroke-linecap="round" pathLength="1000" stroke-dasharray="45 955" style="animation-duration:8.2s;animation-delay:-5.9s"/>
<polyline class="mote" points="431,120 438,119 445,119 452,118 459,118 466,117 473,117 480,116 487,115 494,115 501,114 508,113 515,113 522,112 529,111 535,110 542,110 549,109 556,108 563,107 570,106 577,105 584,103 591,102 598,100 604,98 611,95 617,93 623,89 629,86 635,82 641,77 646,73 650,68 655,62 659,56 662,50 665,44 668,37 670,31 672,24 673,17 675,10 676,3 677,-4 677,-11 678,-17 679,-24 680,-31 681,-38 683,-45" fill="none" stroke="#0969da" stroke-width="2.1" stroke-opacity="0.9" stroke-linecap="round" pathLength="1000" stroke-dasharray="45 955" style="animation-duration:7.8s;animation-delay:-0.8s"/>
<polyline class="mote" points="437,112 444,113 451,113 458,113 465,113 472,113 479,112 486,112 493,112 500,111 507,111 514,111 521,110 528,110 535,109 542,108 549,108 556,107 563,106 570,105 576,104 583,103 590,101 597,99 604,97 610,95 617,92 623,89 629,85 635,81 640,77 645,72 650,67 654,62 658,56 662,50 665,44 668,37 670,30 672,24 673,17 674,10 675,3 676,-4 677,-11 678,-18 679,-25 680,-32 681,-39 683,-45" fill="none" stroke="#0969da" stroke-width="2.1" stroke-opacity="0.9" stroke-linecap="round" pathLength="1000" stroke-dasharray="45 955" style="animation-duration:7.6s;animation-delay:-8.6s"/>
<polyline class="mote" points="452,123 459,122 466,121 473,120 480,119 487,118 494,117 501,116 508,115 515,114 521,113 528,112 535,112 542,111 549,110 556,109 563,108 570,107 577,106 584,104 591,103 597,101 604,99 611,96 617,93 623,90 629,87 635,83 640,78 646,73 650,68 655,63 659,57 662,51 665,45 668,38 670,32 672,25 674,18 675,11 676,4 677,-3 677,-10 678,-17 679,-24 680,-30 681,-37 682,-44" fill="none" stroke="#0969da" stroke-width="2.1" stroke-opacity="0.9" stroke-linecap="round" pathLength="1000" stroke-dasharray="45 955" style="animation-duration:7.3s;animation-delay:-7.6s"/>
<polyline class="mote" points="452,37 456,42 461,47 466,51 472,56 477,61 483,65 488,69 494,72 501,76 507,79 513,81 520,83 527,85 534,87 540,88 547,89 554,90 561,90 568,90 575,89 582,89 589,88 596,86 603,85 610,83 616,80 622,77 628,73 634,69 640,65 645,60 649,55 654,49 657,43 661,37 664,31 666,24 668,18 670,11 672,4 673,-3 674,-10 675,-17 676,-24 678,-30 679,-37 681,-44" fill="none" stroke="#0969da" stroke-width="2.1" stroke-opacity="0.9" stroke-linecap="round" pathLength="1000" stroke-dasharray="45 955" style="animation-duration:7.3s;animation-delay:-3.7s"/>
<polyline class="mote" points="454,102 461,103 468,104 475,105 482,105 489,106 496,106 503,106 510,106 517,106 524,106 531,106 538,106 545,105 552,105 559,104 566,104 573,103 580,101 587,100 593,98 600,97 607,94 613,92 620,89 626,86 632,82 637,78 643,73 648,68 652,63 656,57 660,51 663,45 666,39 668,32 671,25 672,19 674,12 675,5 676,-2 677,-9 677,-16 678,-23 679,-30 681,-37 682,-44" fill="none" stroke="#0969da" stroke-width="2.1" stroke-opacity="0.9" stroke-linecap="round" pathLength="1000" stroke-dasharray="45 955" style="animation-duration:7.2s;animation-delay:-5.1s"/>
</g>
<rect y="124" width="900" height="102" fill="#ffffff" fill-opacity="0.86"/>
<line x1="0" y1="150" x2="900" y2="150" stroke="#d1d9e0"/>
<g class="cell" style="animation-delay:0.12s"><text x="66" y="184" font-family="ui-monospace,'Cascadia Code',Consolas,'DejaVu Sans Mono',monospace" font-size="22" fill="#0969da" font-weight="600">49</text><text x="66" y="206" font-family="ui-monospace,'Cascadia Code',Consolas,'DejaVu Sans Mono',monospace" font-size="11" fill="#59636e" letter-spacing="1.1">MERGED UPSTREAM</text></g>
<line x1="199" y1="170" x2="199" y2="206" stroke="#d1d9e0"/>
<g class="cell" style="animation-delay:0.21s"><text x="216" y="184" font-family="ui-monospace,'Cascadia Code',Consolas,'DejaVu Sans Mono',monospace" font-size="22" fill="#0969da" font-weight="600">4,008</text><text x="216" y="206" font-family="ui-monospace,'Cascadia Code',Consolas,'DejaVu Sans Mono',monospace" font-size="11" fill="#59636e" letter-spacing="1.1">INTEGRATIONS WATCHED</text></g>
<line x1="387" y1="170" x2="387" y2="206" stroke="#d1d9e0"/>
<g class="cell" style="animation-delay:0.30s"><text x="404" y="184" font-family="ui-monospace,'Cascadia Code',Consolas,'DejaVu Sans Mono',monospace" font-size="22" fill="#0969da" font-weight="600">824</text><text x="404" y="206" font-family="ui-monospace,'Cascadia Code',Consolas,'DejaVu Sans Mono',monospace" font-size="11" fill="#59636e" letter-spacing="1.1">BREAKING AHEAD</text></g>
<line x1="529" y1="170" x2="529" y2="206" stroke="#d1d9e0"/>
<g class="cell" style="animation-delay:0.39s"><text x="546" y="184" font-family="ui-monospace,'Cascadia Code',Consolas,'DejaVu Sans Mono',monospace" font-size="22" fill="#0969da" font-weight="600">2,615</text><text x="546" y="206" font-family="ui-monospace,'Cascadia Code',Consolas,'DejaVu Sans Mono',monospace" font-size="11" fill="#59636e" letter-spacing="1.1">INSTALLS A WEEK</text></g>
<line x1="678" y1="170" x2="678" y2="206" stroke="#d1d9e0"/>
<g class="cell" style="animation-delay:0.48s"><text x="695" y="184" font-family="ui-monospace,'Cascadia Code',Consolas,'DejaVu Sans Mono',monospace" font-size="22" fill="#0969da" font-weight="600">DAY 53</text><text x="695" y="206" font-family="ui-monospace,'Cascadia Code',Consolas,'DejaVu Sans Mono',monospace" font-size="11" fill="#59636e" letter-spacing="1.1">DAILY FABLE STREAK</text></g>
<text x="876" y="138" text-anchor="end" font-family="ui-monospace,'Cascadia Code',Consolas,'DejaVu Sans Mono',monospace" font-size="9.5" fill="#59636e" opacity="0.75">seed 2026-09-18</text>
<rect class="caret" x="880" y="130" width="6" height="9" fill="#0969da" opacity="0.75"/>
</svg>